P1
# Created by GIMP version 2.10.22 PNM plug-in
3 5
000000111000000