P1
# Created by GIMP version 2.10.22 PNM plug-in
1 5
00101