P1
# Created by GIMP version 2.10.22 PNM plug-in
2 5
0001000110