P1
# Created by GIMP version 2.10.30 PNM plug-in
3 5
110101101101110