P1
# Created by GIMP version 2.10.30 PNM plug-in
5 7
00000000000111010001111111000001110