P1
# Created by GIMP version 2.10.30 PNM plug-in
5 7
00000100001000011110100011000110001