P1
# Created by GIMP version 2.10.30 PNM plug-in
5 7
00000000000000011110100011000110001