P1
# Created by GIMP version 2.10.30 PNM plug-in
5 7
00000111101000110001111101000010000