P1
# Created by GIMP version 2.10.30 PNM plug-in
5 7
00000011111000110001011110000100001