P1
# Created by GIMP version 2.10.30 PNM plug-in
5 7
00000000000000010001100011000101111