P1
# Created by GIMP version 2.10.30 PNM plug-in
5 7
10001100011000101111000011000101110