P1
# Created by GIMP version 2.10.30 PNM plug-in
5 7
00100011001010000100001000010011111