P1
# Created by GIMP version 2.10.30 PNM plug-in
5 7
01110100010000101110000011000101110