P1
# Created by GIMP version 2.10.30 PNM plug-in
5 7
11111100001111000001000011000101110