P1
# Created by GIMP version 2.10.30 PNM plug-in
5 7
11111000010001000100001000010000100