P1
# Created by GIMP version 2.10.30 PNM plug-in
5 7
11111100001000011110100001000010000