P1
# Created by GIMP version 2.10.30 PNM plug-in
5 7
01110100011000010111100011000101110