P1
# Created by GIMP version 2.10.30 PNM plug-in
5 7
00001000010000100001000011000101110