P1
# Created by GIMP version 2.10.30 PNM plug-in
5 7
10000100001000010000100001000011111