P1
# Created by GIMP version 2.10.30 PNM plug-in
5 7
01010101011010110101101011010110101