P1
# Created by GIMP version 2.10.30 PNM plug-in
5 7
10001110011010110101100111001110001