P1
# Created by GIMP version 2.10.30 PNM plug-in
5 7
01110100011000110001100011000101110