P1
# Created by GIMP version 2.10.30 PNM plug-in
5 7
11110100011000111110100001000010000