P1
# Created by GIMP version 2.10.30 PNM plug-in
5 7
10001100011000110001100011000101110