P1
# Created by GIMP version 2.10.30 PNM plug-in
5 7
10101101011010110101101011010101010