P1
# Created by GIMP version 2.10.30 PNM plug-in
5 7
10001100010101000100001000010000100