P1
# Created by GIMP version 2.10.30 PNM plug-in
5 7
10000100001000011110100011000111110